<svg width="1493" height="590" viewBox="0 0 1493 590" fill="none" xmlns="http://www.w3.org/2000/svg">
<path fill-rule="evenodd" clip-rule="evenodd" d="M563.058 422.019V422H915.724C963.381 422 1002.02 459.608 1002.02 506C1002.02 552.392 963.381 590 915.724 590H563.058V589.981C562.434 589.994 561.809 590 561.182 590C512.489 590 473.015 552.392 473.015 506C473.015 459.608 512.489 422 561.182 422C561.809 422 562.434 422.006 563.058 422.019Z" fill="#4B9CD3"/>
<path d="M728.924 445H650.015V484.68H679.495V471.394H699.443L672.081 542.606H659.195V569H710.741V542.606H701.562L728.924 471.394V445Z" fill="white"/>
<path d="M822.015 445H743.107V484.68H772.587V471.394H792.535L765.173 542.606H752.286V569H803.833V542.606H794.653L822.015 471.394V445Z" fill="white"/>
<path d="M247.586 148.843L223.561 46.4347L0 98.8828L15.9811 167.003L35.1827 162.498L78.2996 346.284L59.098 350.789L75.0792 418.909L298.64 366.461L274.615 264.052L198.266 281.964L206.31 316.253L154.649 328.373L141.027 270.311L192.688 258.191L176.707 190.071L125.046 202.191L111.424 144.129L163.086 132.009L171.13 166.298L247.586 148.843Z" fill="#4B9CD3"/>
<path d="M565.863 262.6L506.538 79.2979L526.138 77.0977L518.332 7.56509L341.467 27.4188L349.273 96.9515L368.873 94.7513L351.665 286.645L332.065 288.845L339.87 358.378L457.002 345.229L449.197 275.697L429.597 277.897L431.43 247.921L479.497 242.525L487.93 271.349L468.33 273.549L476.136 343.081L593.268 329.933L585.462 260.4L565.863 262.6ZM433.92 202.75L439.672 106.651L466.587 199.083L433.92 202.75Z" fill="#4B9CD3"/>
<path d="M848.107 106L848.374 36.9705L812.355 0.672525L674.296 0.139581L638.469 35.6906L637.976 163.419L673.527 199.245L757.114 199.568L769.285 209.477L769.131 249.392L756.884 259.206L727.769 259.094L715.598 249.185L715.696 223.827L637.274 223.525L637.008 292.554L673.027 328.852L811.086 329.385L846.912 293.834L847.406 166.106L811.855 130.279L728.268 129.957L716.096 120.048L716.25 80.1329L728.498 70.3187L757.612 70.4311L769.784 80.3396L769.686 105.697L848.107 106Z" fill="#4B9CD3"/>
<path d="M1075.13 21.4604L1066.79 90.931L1077.04 92.1624L1040.62 147.383L1018.3 85.1101L1028.55 86.3414L1036.89 16.8708L919.865 2.8222L911.526 72.2928L940.433 75.7629L992.217 219.612L986.005 271.365L966.422 269.014L958.083 338.485L1075.11 352.534L1083.45 283.063L1063.87 280.712L1070.08 228.959L1154.5 100.987L1183.4 104.457L1191.74 34.9869L1075.13 21.4604Z" fill="#4B9CD3"/>
<path d="M1452.99 263.411L1483.36 140.311L1456.91 96.5445L1269.07 50.208L1252.31 118.141L1271.46 122.865L1226.25 306.147L1207.1 301.423L1190.34 369.356L1304.78 397.585L1321.54 329.652L1302.39 324.929L1316.67 267.026L1409.22 289.857L1452.99 263.411ZM1387.31 202.228L1373.09 208.878L1333.43 199.093L1347.71 141.191L1387.38 150.975L1396.87 163.474L1387.31 202.228Z" fill="#4B9CD3"/>
</svg>
